PathFileType	3	(X/Y/Z)	D:\minhoCalibration\240510\subject5_KPNP\preferred\preferred11.trc
DataRate	CameraRate	NumFrames	NumMarkers	Units	OrigDataRate	OrigDataStartFrame	OrigNumFrames
200.0	200.0	30	10	mm	200.0	160	101	
Frame#	Time	Left_Ankle_Outer1			Left_Ankle_Inner1			Left_Knee_Outer1			Left_Knee_Inner1			Left_Wrist1			Right_Wrist1			Right_Knee_Inner1			Right_Knee_Outer1			Right_Ankle_Inner1			Right_Ankle_Outer1			
		X1	Y1	Z1	X2	Y2	Z2	X3	Y3	Z3	X4	Y4	Z4	X5	Y5	Z5	X6	Y6	Z6	X7	Y7	Z7	X8	Y8	Z8	X9	Y9	Z9	X10	Y10	Z10	
160	0.79	-466.26886	74.293968	-617.98529	-512.34265	86.530533	-599.44452	-335.06323	525.45374	-505.45401	-424.9426	513.78339	-477.84494	-315.85486	1000.4149	-681.88794	-643.95752	1046.7278	-701.50854	-750.7392	553.74396	-468.64938	-821.72253	610.83191	-495.43924	-673.63257	292.3996	-837.04907	-733.3006	357.99896	-878.81226
161	0.795	-466.12781	74.356827	-618.08502	-511.98923	86.780479	-599.38995	-333.81891	525.37769	-506.8013	-423.65329	513.85486	-478.10965	-313.51666	1000.757	-682.35944	-642.61261	1049.9874	-693.58276	-748.30139	563.46533	-449.76898	-819.58929	621.33307	-475.40491	-677.38495	301.4205	-819.96405	-737.18506	367.55167	-860.35034
162	0.8	-465.77673	74.710823	-618.10022	-511.50067	87.072716	-599.45508	-332.45319	525.27325	-508.40979	-421.57327	513.93579	-479.07431	-311.17654	1001.1531	-682.99933	-639.87354	1053.679	-688.66681	-745.52777	574.12769	-430.59821	-817.06183	632.18518	-455.49026	-681.79218	310.49396	-802.11047	-740.89215	377.55396	-842.04193
163	0.805	-465.55313	74.875465	-618.18799	-511.10452	87.30468	-599.78131	-330.81717	525.1983	-510.31287	-419.73709	514.15424	-480.0264	-309.86536	1001.3527	-683.97247	-637.21167	1057.6459	-682.48315	-742.07465	584.58746	-412.33051	-813.64172	643.19501	-436.51205	-686.0473	319.97818	-784.62274	-744.74146	387.93509	-823.57153
164	0.81	-465.04401	74.978989	-618.70703	-510.97726	87.754333	-599.15326	-329.27887	525.22797	-512.04858	-417.87753	514.37146	-480.84006	-307.36893	1002.0354	-685.06091	-635.00311	1061.2463	-675.68329	-738.28778	595.75378	-393.68433	-809.8056	654.94049	-416.93005	-690.81396	329.8595	-767.12872	-748.79138	398.75827	-804.96014
165	0.815	-465.26654	74.807892	-617.95386	-510.30295	88.09404	-599.91327	-327.758	525.49377	-513.88623	-415.82355	514.67871	-481.84589	-306.17517	1002.4304	-686.20563	-630.47083	1066.072	-670.48199	-733.86884	607.15326	-375.33636	-805.37952	666.71643	-398.18591	-695.31946	340.30606	-749.94775	-753.01099	410.06567	-786.47034
166	0.82	-464.11554	75.532654	-619.11615	-509.686	88.455925	-599.95135	-326.06711	525.75635	-515.97534	-413.67325	514.86774	-483.00073	-304.314	1002.9726	-687.71783	-629.89172	1069.3398	-661.77863	-728.90601	618.88586	-357.25189	-800.01349	678.76947	-380.11841	-700.11896	351.25311	-732.91986	-757.54071	421.72568	-767.97852
167	0.825	-462.06409	76.899689	-620.17902	-508.57712	88.728302	-600.30011	-324.59671	525.75763	-518.23486	-411.67169	515.30328	-484.02606	-303.05511	1003.5188	-689.2345	-624.97766	1072.5569	-658.45374	-723.83582	630.97766	-339.21371	-794.742	691.52588	-361.33502	-704.96051	362.69186	-715.83978	-762.48004	434.01663	-749.46881
168	0.83	-461.88065	76.406006	-619.85388	-507.6806	89.364845	-600.06598	-323.02969	526.20361	-520.44055	-409.58273	515.69489	-485.17075	-301.95325	1004.0896	-690.93994	-621.95978	1077.2271	-651.69537	-717.96198	643.17834	-321.62881	-788.49524	704.68872	-342.59921	-709.5896	374.85327	-699.10211	-767.31567	446.76544	-731.30481
169	0.835	-460.46414	76.888939	-620.55859	-506.31052	89.506737	-601.45123	-321.21854	526.58307	-522.84094	-408.10754	516.45404	-484.96494	-300.84204	1004.6419	-692.91382	-619.12341	1081.1621	-644.9494	-711.72687	655.56952	-304.33466	-782.14325	718.24011	-323.98459	-715.24573	387.11978	-682.10028	-772.48584	459.94968	-712.91656
170	0.84	-460.01917	76.594879	-620.26758	-504.94052	90.098801	-601.65363	-319.54358	526.96973	-525.13922	-405.75644	516.72363	-486.6124	-300.15939	1005.0576	-695.09509	-617.19739	1085.2349	-636.28333	-705.11322	668.09528	-287.47415	-774.88751	731.70605	-306.41763	-720.11438	399.94589	-665.5874	-777.70135	473.60641	-694.60931
171	0.845	-458.26852	77.48262	-621.40753	-504.04196	90.462097	-601.78479	-317.69843	527.41479	-527.47229	-403.39713	516.97223	-487.71588	-299.58649	1005.3693	-697.55743	-613.34607	1089.3381	-629.52069	-698.23712	680.76611	-270.87033	-767.3913	745.79187	-288.69812	-725.98395	413.11786	-648.78741	-782.78522	487.65787	-676.22449
172	0.85	-457.32971	77.882584	-621.74567	-502.80768	91.00486	-602.29059	-316.01175	527.76801	-529.87787	-400.94189	517.65338	-488.70468	-299.46094	1005.3357	-700.21326	-610.51794	1094.2181	-622.22314	-690.73022	693.56293	-254.5071	-759.0788	760.04596	-271.58203	-731.38702	426.65448	-631.91406	-787.97333	502.37656	-658.12598
173	0.855	-457.09299	77.995552	-621.24823	-501.98816	91.494041	-602.37665	-314.35535	528.14093	-532.09705	-398.79605	517.53174	-490.40344	-299.50061	1005.2549	-703.2478	-606.03082	1097.4725	-617.56085	-683.17108	706.76038	-238.89975	-750.62549	774.33148	-254.77565	-737.26196	440.51324	-615.16962	-792.96417	517.35944	-639.80341
174	0.86	-455.96991	78.72657	-622.39893	-501.08731	92.085258	-602.93506	-312.41583	528.5094	-534.37921	-396.59296	518.22784	-490.53381	-299.99564	1004.8258	-706.36859	-603.65186	1102.3071	-609.97607	-674.92316	719.87946	-223.45288	-741.38287	788.95996	-238.43503	-743.31958	454.84348	-598.2619	-797.91156	532.90704	-621.65668
175	0.865	-455.80606	79.361023	-622.49799	-500.80859	92.725403	-601.52423	-310.59241	528.76642	-536.52576	-393.69385	518.12323	-492.44879	-300.7811	1004.2714	-709.71954	-600.42145	1106.71	-604.09796	-666.07977	733.21179	-208.63704	-731.3902	803.94257	-222.62823	-749.49731	469.55951	-581.46399	-802.77637	548.91736	-603.59705
176	0.87	-456.63327	79.41703	-622.22681	-500.86386	93.390396	-600.43933	-309.03488	528.8656	-538.42334	-391.26761	518.18488	-492.76636	-302.04895	1003.4064	-713.21887	-597.0108	1112.6193	-599.07819	-656.66852	746.5672	-194.23488	-720.73163	818.66913	-207.45219	-755.75104	484.72974	-564.72711	-807.74487	565.48938	-585.32233
177	0.875	-457.28549	80.243492	-622.01837	-501.43301	94.374969	-599.42896	-307.40759	529.02344	-540.2392	-388.49524	518.85577	-492.28574	-303.72824	1002.2701	-716.94189	-592.40259	1116.4545	-592.26782	-646.68799	759.91486	-180.49037	-709.20074	833.38928	-193.07468	-761.99902	500.33618	-548.12592	-812.76892	582.34808	-567.36597
178	0.88	-458.79507	80.718483	-621.3468	-502.16937	95.556084	-597.66968	-305.55569	528.95703	-541.90863	-385.90002	518.97534	-491.80215	-305.78839	1001.0463	-720.82178	-586.3938	1121.115	-585.13849	-636.11646	773.19629	-167.30798	-697.38873	848.19647	-178.84889	-768.51166	516.3371	-531.48773	-817.7326	599.74591	-549.36676
179	0.885	-460.31296	81.624138	-620.65125	-503.87048	96.43026	-596.88739	-304.03842	529.00562	-543.34387	-383.21555	519.56433	-490.30878	-308.31708	999.56555	-724.73328	-579.74091	1126.7833	-577.69855	-624.81219	786.14008	-155.12299	-684.24988	862.73474	-165.8748	-775.05066	532.71423	-514.69122	-822.5929	617.35565	-531.25439
180	0.89	-462.1954	82.574944	-619.56555	-504.68915	96.659981	-595.10071	-302.41638	528.86078	-544.71136	-379.91205	519.42566	-490.28879	-311.58716	998.09753	-728.21692	-575.2536	1130.8306	-570.91058	-613.4046	799.21362	-142.21805	-670.79456	877.11981	-153.19345	-781.83917	549.37451	-497.6821	-827.37939	635.36829	-512.94629
181	0.895	-463.89819	83.776802	-618.93018	-506.87665	98.128792	-592.10254	-301.19037	528.5827	-545.80542	-377.08844	519.58459	-489.09756	-315.31522	995.90778	-732.55322	-569.36597	1135.7029	-563.80389	-600.95325	811.88708	-131.24469	-655.80316	891.25781	-141.96181	-788.79926	566.35864	-480.35281	-832.00726	653.64642	-494.41379
182	0.9	-466.83191	84.524422	-616.74725	-508.24188	99.708099	-589.86279	-299.87927	528.53638	-546.77612	-373.84509	519.6734	-487.44247	-319.08557	994.1366	-736.41235	-564.85638	1139.394	-560.80377	-588.00995	824.27155	-121.12035	-640.87	905.20734	-130.51067	-796.03796	583.77692	-462.81241	-836.51385	672.25732	-475.63101
183	0.905	-469.31821	85.519814	-614.89545	-509.8313	101.28402	-586.90039	-298.69244	528.54047	-547.63947	-370.22424	520.12964	-485.1633	-323.40662	992.07849	-740.05859	-558.63708	1143.0656	-557.96301	-574.34973	836.32727	-111.97374	-624.75446	918.71399	-120.3122	-802.80865	601.34137	-444.29758	-840.76672	691.29254	-456.08957
184	0.91	-471.61646	86.504875	-613.35931	-511.41821	102.82472	-583.63538	-297.30856	528.69641	-548.53619	-367.03555	520.26434	-483.36826	-328.84052	989.12006	-743.73511	-554.41357	1147.5723	-551.54138	-559.888	847.45227	-103.31393	-607.96198	931.29572	-111.54768	-809.72485	619.37909	-425.40735	-844.80133	710.59839	-436.26749
185	0.915	-473.89563	87.580521	-611.77838	-513.10303	103.40231	-582.2572	-296.30209	528.91211	-549.31329	-363.25723	520.55365	-482.61328	-333.99448	987.30157	-746.31854	-548.29028	1151.0764	-549.63245	-545.27368	858.33691	-95.840668	-590.81146	943.79279	-103.18945	-816.45978	637.82587	-405.75247	-848.58069	730.13892	-415.72855
186	0.92	-476.30685	88.161896	-609.82922	-514.52454	104.68672	-578.98541	-295.58841	529.12537	-550.2002	-360.14923	520.75537	-481.52621	-339.25781	985.1405	-748.95905	-544.2348	1155.3381	-543.99292	-530.83337	868.729	-88.868492	-572.85944	955.7829	-95.901772	-822.73865	656.52844	-385.27673	-851.97028	749.71191	-394.16977
187	0.925	-478.01102	88.97168	-608.62115	-515.55566	105.27413	-577.41473	-295.38971	529.24573	-550.95148	-357.53711	520.93579	-480.60754	-344.42447	983.16937	-751.29645	-538.48096	1158.2762	-543.0459	-515.59009	878.63519	-83.312233	-554.73065	967.10754	-89.755638	-828.71918	675.43762	-363.92551	-855.05701	769.77325	-372.21881
188	0.93	-479.76553	89.391624	-607.41058	-517.11578	105.9285	-574.6521	-295.0661	529.51257	-552.13409	-355.18762	521.08112	-480.09052	-349.4097	981.39777	-753.25336	-533.82587	1161.7689	-540.40021	-500.73862	887.99188	-78.254295	-536.47198	977.81366	-84.714592	-834.46594	694.34027	-342.4407	-857.50647	789.9422	-349.26654
189	0.935	-481.25183	89.466782	-606.39307	-517.0943	106.51161	-573.11932	-295.39014	529.58319	-553.24164	-353.48065	521.10449	-479.63922	-354.7981	979.27411	-754.81073	-529.75305	1165.4437	-537.16705	-486.02206	896.90906	-73.965904	-518.0174	987.82819	-80.793961	-839.21649	714.1731	-318.43652	-859.4093	810.19733	-325.4028
